<?xml version="1.0" standalone="no"?>
<!DOCTYPE svg PUBLIC "-//W3C//DTD SVG 20010904//EN"
 "http://www.w3.org/TR/2001/REC-SVG-20010904/DTD/svg10.dtd">
<svg version="1.0" xmlns="http://www.w3.org/2000/svg"
 width="980.000000pt" height="980.000000pt" viewBox="0 0 980.000000 980.000000"
 preserveAspectRatio="xMidYMid meet">

<g transform="translate(0.000000,980.000000) scale(0.100000,-0.100000)"
fill="#000000" stroke="none">
<path d="M4560 9789 c-1035 -75 -1992 -461 -2800 -1127 -150 -124 -500 -475
-626 -627 -877 -1062 -1266 -2400 -1094 -3760 119 -934 501 -1801 1124 -2545
98 -117 370 -393 496 -504 1310 -1150 3104 -1521 4760 -984 975 316 1839 947
2451 1788 796 1096 1100 2494 833 3830 -145 727 -444 1394 -889 1985 -149 197
-245 309 -423 489 -815 826 -1832 1316 -2992 1441 -174 19 -664 27 -840 14z
m3127 -3012 c17 -17 18 -105 18 -1877 0 -1772 -1 -1860 -18 -1877 -17 -17
-142 -18 -2787 -18 -2645 0 -2770 1 -2787 18 -17 17 -18 108 -21 1885 -1 1027
0 1873 3 1880 3 10 562 12 2789 10 2659 -3 2786 -4 2803 -21z"/>
<path d="M2556 6529 c28 -32 1938 -1787 2014 -1851 177 -149 248 -184 355
-176 82 7 132 35 275 154 192 160 2005 1825 2033 1867 l17 27 -2356 0 -2357 0
19 -21z"/>
<path d="M2360 4901 c0 -1158 3 -1491 12 -1485 28 18 1608 1476 1608 1484 0 5
-352 332 -782 726 -431 395 -795 728 -810 742 l-28 26 0 -1493z"/>
<path d="M6888 5888 c-288 -266 -647 -595 -796 -732 -150 -137 -272 -252 -272
-256 0 -5 1425 -1318 1577 -1453 l43 -39 0 1481 c0 1242 -2 1481 -14 1481 -7
0 -249 -217 -538 -482z"/>
<path d="M4074 4669 c-32 -29 -275 -251 -539 -494 -264 -243 -574 -528 -690
-635 -115 -106 -234 -208 -263 -227 -105 -68 -282 -63 2319 -63 1796 0 2350 3
2355 12 5 7 -6 22 -26 37 -34 26 -883 800 -1313 1198 -155 143 -239 214 -259
219 -36 7 -48 -1 -198 -132 -334 -293 -457 -357 -626 -325 -119 22 -220 88
-473 307 -151 132 -181 154 -206 154 -12 0 -48 -23 -81 -51z"/>
</g>
</svg>
