<?xml version="1.0" encoding="utf-8"?>
<!-- Generator: Adobe Illustrator 25.1.0, SVG Export Plug-In . SVG Version: 6.00 Build 0)  -->
<svg version="1.1" id="Ebene_1" xmlns="http://www.w3.org/2000/svg" xmlns:xlink="http://www.w3.org/1999/xlink" x="0px" y="0px"
	 viewBox="0 0 24 24" style="enable-background:new 0 0 24 24;" xml:space="preserve">
<style type="text/css">
	.st0{fill:none;stroke-width:1.5;stroke-linecap:round;stroke-linejoin:round;}
</style>
<g stroke="#000000">
<path class="st0" d="M16.7,6.2l-5.5,5.5c-0.3,0.3-0.8,0.3-1.1,0c0,0,0,0,0,0L8.5,9.9"/>
<polyline class="st0" points="4.7,13.2 0.8,18 4.5,18.7 6,23.2 10,16.9 "/>
<polyline class="st0" points="19.3,13.2 23.2,18 19.5,18.7 18,23.2 14,16.9 "/>
<path class="st0" d="M19.5,9.5l0.8,2.2c0.1,0.3,0,0.7-0.3,0.9l-2,1.3l-0.6,2.3c-0.1,0.3-0.4,0.6-0.8,0.6l-2.4-0.1l-1.8,1.5
	c-0.3,0.2-0.7,0.2-0.9,0l-1.8-1.5l-2.4,0.1c-0.4,0-0.7-0.2-0.8-0.6l-0.6-2.3l-2-1.3c-0.3-0.2-0.4-0.6-0.3-0.9l0.8-2.2L3.7,7.3
	C3.5,7,3.6,6.6,3.9,6.4l2-1.3l0.6-2.3C6.6,2.5,7,2.3,7.3,2.3l2.4,0.1l1.8-1.5c0.3-0.2,0.7-0.2,0.9,0l1.8,1.5"/>
<polyline class="st0" points="14.3,2.5 17.4,1.9 18.3,5.2 20.9,6.6 19.4,9.5 "/>
</g>
</svg>
