<?xml version="1.0" standalone="no"?>
<!DOCTYPE svg PUBLIC "-//W3C//DTD SVG 20010904//EN"
 "http://www.w3.org/TR/2001/REC-SVG-20010904/DTD/svg10.dtd">
<svg version="1.0" xmlns="http://www.w3.org/2000/svg"
 width="512.000000pt" height="512.000000pt" viewBox="0 0 512.000000 512.000000"
 preserveAspectRatio="xMidYMid meet">

<g transform="translate(0.000000,512.000000) scale(0.100000,-0.100000)"
fill="#000000" stroke="none">
<path d="M2320 5064 c-618 -74 -1119 -312 -1536 -728 -383 -383 -620 -850
-711 -1401 -26 -157 -26 -593 0 -750 91 -551 328 -1018 711 -1401 383 -383
850 -620 1401 -711 157 -26 593 -26 750 0 551 91 1018 328 1401 711 203 204
347 405 474 661 181 368 260 706 260 1115 0 409 -79 747 -260 1115 -324 657
-913 1134 -1629 1321 -200 52 -319 66 -581 69 -135 2 -261 1 -280 -1z m-608
-1304 c115 -43 181 -136 181 -258 1 -174 -122 -286 -314 -285 -177 1 -293 113
-294 283 0 90 27 153 89 206 85 72 228 95 338 54z m1673 -757 c212 -52 359
-210 427 -458 21 -77 22 -101 26 -642 l3 -563 -275 0 -276 0 0 478 c0 542 -4
579 -66 669 -80 117 -250 139 -379 50 -66 -45 -112 -124 -125 -212 -5 -38 -10
-276 -10 -527 l0 -458 -270 0 -270 0 0 825 0 825 270 0 270 0 0 -117 1 -118
27 35 c77 102 175 174 285 209 94 31 247 33 362 4z m-1525 -838 l0 -825 -275
0 -275 0 0 825 0 825 275 0 275 0 0 -825z"/>
</g>
</svg>
